<svg height="480pt" viewBox="0 -84 480 480" width="480pt" xmlns="http://www.w3.org/2000/svg"><path d="m472 0h-288c-4.417969 0-8 3.582031-8 8v16h-88c-.269531.039062-.535156.097656-.800781.167969-.542969.050781-1.078125.160156-1.597657.328125-.472656.15625-.929687.359375-1.363281.601562-.9375.488282-1.757812 1.179688-2.398437 2.023438-.214844.199218-.414063.414062-.601563.640625l-80 128c-.109375.183593-.117187.390625-.214843.574219-.234376.476562-.421876.972656-.558594 1.488281-.164063.519531-.269532 1.058593-.320313 1.601562 0 .207031-.1210935.382813-.1210935.597657v79.976562c.0390625 1.417969.4609375 2.800781 1.2226565 4-.769532 1.195312-1.2031252 2.578125-1.246094 4 0 4.417969 3.582031 8 8 8h24.550781c4.007813 31.992188 31.207031 55.996094 63.449219 55.996094s59.441406-24.003906 63.449219-55.996094h113.101562c4.007813 31.992188 31.207031 55.996094 63.449219 55.996094s59.441406-24.003906 63.449219-55.996094h24.550781c4.417969 0 8-3.582031 8-8v-72h40c4.417969 0 8-3.582031 8-8v-160c0-4.417969-3.582031-8-8-8zm-344 152h-105.558594l70-112h35.558594zm-112 16h120c4.417969 0 8-3.582031 8-8v-120h32v200h-16.550781c-4.007813-31.992188-31.207031-55.996094-63.449219-55.996094s-59.441406 24.003906-63.449219 55.996094h-16.550781zm80 128c-26.507812 0-48-21.492188-48-48s21.492188-48 48-48 48 21.492188 48 48c-.027344 26.5-21.5 47.972656-48 48zm240 0c-26.507812 0-48-21.492188-48-48s21.492188-48 48-48 48 21.492188 48 48c-.027344 26.5-21.5 47.972656-48 48zm80-56h-16.550781c-4.007813-31.992188-31.207031-55.996094-63.449219-55.996094s-59.441406 24.003906-63.449219 55.996094h-80.550781v-64h224zm48-80h-272v-144h272zm0 0"/><path d="m96 224c-13.253906 0-24 10.746094-24 24s10.746094 24 24 24 24-10.746094 24-24-10.746094-24-24-24zm0 32c-4.417969 0-8-3.582031-8-8s3.582031-8 8-8 8 3.582031 8 8-3.582031 8-8 8zm0 0"/><path d="m336 224c-13.253906 0-24 10.746094-24 24s10.746094 24 24 24 24-10.746094 24-24-10.746094-24-24-24zm0 32c-4.417969 0-8-3.582031-8-8s3.582031-8 8-8 8 3.582031 8 8-3.582031 8-8 8zm0 0"/></svg>